<svg width="40" height="48" viewBox="0 0 40 48" fill="none" xmlns="http://www.w3.org/2000/svg">
<path d="M22.9225 0.666687C23.5 0.666687 23.9852 1.15669 23.9852 1.74002V9.25335C23.9852 13.5234 27.4505 17.0234 31.7013 17.0467C33.434 17.0467 34.8433 17.07 35.8829 17.07L36.2765 17.0683C36.9866 17.0629 37.9428 17.0467 38.7706 17.0467C39.3713 17.0467 39.8334 17.5134 39.8334 18.0967V36.8567C39.8334 42.6434 35.1667 47.3334 29.4373 47.3334H11.071C5.04128 47.3334 0.166687 42.41 0.166687 36.3434V11.19C0.166687 5.40335 4.81025 0.666687 10.5858 0.666687H22.9225ZM19.1568 16.3934C18.2096 16.3934 17.4241 17.1634 17.4241 18.1434V29.39L13.7508 25.6567C13.0809 24.98 11.9951 24.98 11.3251 25.6567C10.6551 26.3334 10.6551 27.43 11.3251 28.13L17.9324 34.8267C18.0941 34.99 18.2789 35.1067 18.4868 35.2C18.6947 35.2934 18.9258 35.34 19.1568 35.34C19.3878 35.34 19.5957 35.2934 19.8037 35.2C20.0116 35.1067 20.1964 34.99 20.3581 34.8267L26.9885 28.13C27.6584 27.43 27.6584 26.3334 26.9654 25.6567C26.2954 24.98 25.2096 24.98 24.5396 25.6567L20.8664 29.39V18.1434C20.8664 17.1634 20.104 16.3934 19.1568 16.3934ZM27.3385 2.78092C27.3385 1.77525 28.5467 1.27592 29.2352 2.00159C31.7348 4.62425 36.0989 9.20925 38.5385 11.7713C39.2131 12.4783 38.7187 13.6519 37.7438 13.6543C35.8471 13.6613 33.6084 13.6543 31.9982 13.6379C29.4431 13.6379 27.3385 11.5123 27.3385 8.93159V2.78092Z" fill="white"/>
</svg>
